<!-- Generator: Adobe Illustrator 19.0.0, SVG Export Plug-In  -->
<svg version="1.1"
	 xmlns="http://www.w3.org/2000/svg" xmlns:xlink="http://www.w3.org/1999/xlink" xmlns:a="http://ns.adobe.com/AdobeSVGViewerExtensions/3.0/"
	 x="0px" y="0px" width="278.929px" height="104.364px" viewBox="0 0 278.929 104.364"
	 style="enable-background:new 0 0 278.929 104.364;" xml:space="preserve">
<style type="text/css">
	.st0{fill:url(#XMLID_99_);}
	.st1{fill:url(#XMLID_100_);}
	.st2{fill:url(#XMLID_101_);}
	.st3{fill:url(#XMLID_102_);}
	.st4{fill:url(#XMLID_103_);}
	.st5{fill:url(#XMLID_104_);}
	.st6{fill:url(#XMLID_105_);}
	.st7{fill:url(#XMLID_106_);}
	.st8{fill:url(#XMLID_107_);}
	.st9{fill:url(#XMLID_108_);}
	.st10{fill:url(#XMLID_109_);}
	.st11{fill:url(#XMLID_110_);}
	.st12{fill:url(#XMLID_111_);}
	.st13{fill:url(#XMLID_112_);}
	.st14{fill:url(#XMLID_113_);}
	.st15{fill:url(#XMLID_114_);}
	.st16{fill:url(#XMLID_115_);}
	.st17{fill:url(#XMLID_116_);}
	.st18{fill:url(#XMLID_117_);}
	.st19{fill:url(#XMLID_118_);}
	.st20{fill:url(#XMLID_119_);}
	.st21{fill:url(#XMLID_120_);}
	.st22{fill:url(#XMLID_121_);}
	.st23{fill:url(#XMLID_122_);}
	.st24{opacity:0.77;fill:url(#XMLID_123_);}
	.st25{fill:url(#XMLID_124_);}
	.st26{fill:url(#XMLID_125_);}
	.st27{fill:url(#XMLID_126_);}
	.st28{fill:url(#XMLID_127_);}
	.st29{fill:url(#XMLID_128_);}
	.st30{opacity:0.9;fill:#231F20;}
	.st31{fill:#231F20;}
	.st32{opacity:0.7;fill:#231F20;}
	.st33{opacity:0.8;fill:#231F20;}
	.st34{fill:url(#XMLID_129_);}
	.st35{fill:url(#XMLID_130_);}
	.st36{fill:url(#XMLID_131_);}
	.st37{fill:url(#XMLID_132_);}
	.st38{fill:url(#XMLID_133_);}
	.st39{fill:url(#XMLID_134_);}
	.st40{fill:url(#XMLID_135_);}
	.st41{fill:url(#XMLID_136_);}
	.st42{fill:url(#XMLID_137_);}
	.st43{fill:url(#XMLID_138_);}
	.st44{fill:url(#XMLID_139_);}
	.st45{fill:url(#XMLID_140_);}
	.st46{fill:url(#XMLID_141_);}
	.st47{fill:url(#XMLID_142_);}
	.st48{fill:url(#XMLID_143_);}
	.st49{fill:url(#XMLID_144_);}
	.st50{fill:url(#XMLID_145_);}
	.st51{fill:url(#XMLID_146_);}
	.st52{fill:url(#XMLID_147_);}
	.st53{fill:url(#XMLID_148_);}
	.st54{fill:url(#XMLID_149_);}
	.st55{fill:url(#XMLID_150_);}
	.st56{fill:url(#XMLID_151_);}
	.st57{fill:url(#XMLID_152_);}
	.st58{opacity:0.77;fill:url(#XMLID_153_);}
	.st59{fill:url(#XMLID_154_);}
	.st60{fill:url(#XMLID_155_);}
	.st61{fill:url(#XMLID_156_);}
	.st62{fill:url(#XMLID_157_);}
	.st63{fill:url(#XMLID_158_);}
</style>
<defs>
</defs>
<g id="XMLID_84_">
	<linearGradient id="XMLID_99_" gradientUnits="userSpaceOnUse" x1="169.0408" y1="91.8206" x2="160.5619" y2="83.9945">
		<stop  offset="0" style="stop-color:#A6CE39"/>
		<stop  offset="1" style="stop-color:#78A842"/>
	</linearGradient>
	<path id="XMLID_98_" class="st0" d="M152.87,70.7c0,0,27.533,16.8,26.133,28c-1.4,11.2-9.8,2.333-9.8,2.333
		S166.573,80.594,148.7,74.9C142.709,72.991,152.87,70.7,152.87,70.7z"/>
	<linearGradient id="XMLID_100_" gradientUnits="userSpaceOnUse" x1="92.7057" y1="26.1924" x2="64.3174" y2="64.8044">
		<stop  offset="0" style="stop-color:#A6CE39"/>
		<stop  offset="1" style="stop-color:#78A842"/>
	</linearGradient>
	<path id="XMLID_97_" class="st1" d="M0,19.367C39.397,10.967,57.203,93.1,114.707,95.2c8.044,0.294,29.215-6.192,40.561-21.183
		C87.2-8.999,0,19.367,0,19.367z"/>
	<linearGradient id="XMLID_101_" gradientUnits="userSpaceOnUse" x1="109.7094" y1="-12.907" x2="89.6878" y2="24.6181">
		<stop  offset="0" style="stop-color:#A6CE39"/>
		<stop  offset="1" style="stop-color:#78A842"/>
	</linearGradient>
	<path id="XMLID_96_" class="st2" d="M162.436,47.6C158.47,12.833,128.603,0,81.218,0S0,19.367,0,19.367s87.2-28.366,155.268,54.65
		C160.514,67.086,163.661,58.339,162.436,47.6z"/>
	<radialGradient id="XMLID_102_" cx="123.5022" cy="18.6667" r="22.9687" gradientUnits="userSpaceOnUse">
		<stop  offset="0" style="stop-color:#FFFFFF"/>
		<stop  offset="1" style="stop-color:#A6CE39"/>
	</radialGradient>
	<path id="XMLID_95_" class="st3" d="M94.536,3.967c0,0,43.064,0.933,57.932,29.4C152.468,33.367,133.234,7.882,94.536,3.967z"/>
	<g id="XMLID_90_">
		
			<linearGradient id="XMLID_103_" gradientUnits="userSpaceOnUse" x1="45.7597" y1="101.3755" x2="66.4196" y2="101.3126" gradientTransform="matrix(0.9563 0.2924 -0.2924 0.9563 49.7855 -77.1836)">
			<stop  offset="0" style="stop-color:#A6CE39"/>
			<stop  offset="1" style="stop-color:#78A842"/>
		</linearGradient>
		<path id="XMLID_94_" class="st4" d="M87.653,40.37c-1.236,4.042-8.735,5.332-16.751,2.882
			c-8.015-2.451-13.511-7.714-12.275-11.756c1.236-4.042,8.735-5.332,16.751-2.882S88.889,36.328,87.653,40.37z"/>
		
			<linearGradient id="XMLID_104_" gradientUnits="userSpaceOnUse" x1="71.0618" y1="105.656" x2="49.8152" y2="99.7104" gradientTransform="matrix(0.9563 0.2924 -0.2924 0.9563 49.7855 -77.1836)">
			<stop  offset="0" style="stop-color:#FFFFFF"/>
			<stop  offset="1" style="stop-color:#A6CE39"/>
		</linearGradient>
		<path id="XMLID_93_" class="st5" d="M82.883,38.228c-1.036,3.387-7.043,4.553-13.418,2.604s-10.703-6.275-9.668-9.662
			s7.043-4.553,13.418-2.604S83.918,34.841,82.883,38.228z"/>
		
			<linearGradient id="XMLID_105_" gradientUnits="userSpaceOnUse" x1="62.4784" y1="77.2673" x2="65.7568" y2="76.6443" gradientTransform="matrix(0.9986 0.0523 -0.0523 0.9986 5.7817 -48.9482)">
			<stop  offset="0" style="stop-color:#FFFFFF"/>
			<stop  offset="1" style="stop-color:#A6CE39"/>
		</linearGradient>
		<path id="XMLID_92_" class="st6" d="M67.796,31.326c-0.032,0.605-0.871,1.052-1.875,1c-1.004-0.053-1.792-0.585-1.76-1.19
			c0.032-0.605,0.871-1.052,1.875-1C67.04,30.189,67.828,30.722,67.796,31.326z"/>
		
			<linearGradient id="XMLID_106_" gradientUnits="userSpaceOnUse" x1="67.5983" y1="76.6514" x2="70.221" y2="76.1529" gradientTransform="matrix(0.9986 0.0523 -0.0523 0.9986 5.7817 -48.9482)">
			<stop  offset="0" style="stop-color:#FFFFFF"/>
			<stop  offset="1" style="stop-color:#A6CE39"/>
		</linearGradient>
		<path id="XMLID_91_" class="st7" d="M72.208,31.011c-0.025,0.484-0.697,0.842-1.5,0.8c-0.803-0.042-1.433-0.468-1.408-0.952
			s0.697-0.842,1.5-0.8C71.603,30.101,72.234,30.527,72.208,31.011z"/>
	</g>
	<g id="XMLID_85_">
		
			<linearGradient id="XMLID_107_" gradientUnits="userSpaceOnUse" x1="79.035" y1="105.8379" x2="89.365" y2="105.8064" gradientTransform="matrix(0.9563 0.2924 -0.2924 0.9563 49.7855 -77.1836)">
			<stop  offset="0" style="stop-color:#A6CE39"/>
			<stop  offset="1" style="stop-color:#78A842"/>
		</linearGradient>
		<path id="XMLID_89_" class="st8" d="M106.296,50.752c-0.618,2.021-4.368,2.666-8.375,1.441c-4.008-1.225-6.756-3.857-6.138-5.878
			c0.618-2.021,4.368-2.666,8.375-1.441C104.166,46.099,106.914,48.731,106.296,50.752z"/>
		
			<linearGradient id="XMLID_108_" gradientUnits="userSpaceOnUse" x1="91.6861" y1="107.9781" x2="81.0628" y2="105.0053" gradientTransform="matrix(0.9563 0.2924 -0.2924 0.9563 49.7855 -77.1836)">
			<stop  offset="0" style="stop-color:#FFFFFF"/>
			<stop  offset="1" style="stop-color:#A6CE39"/>
		</linearGradient>
		<path id="XMLID_88_" class="st9" d="M103.911,49.681c-0.518,1.694-3.522,2.277-6.709,1.302c-3.187-0.975-5.352-3.137-4.834-4.831
			c0.518-1.694,3.522-2.277,6.709-1.302S104.429,47.987,103.911,49.681z"/>
		
			<linearGradient id="XMLID_109_" gradientUnits="userSpaceOnUse" x1="93.6173" y1="90.4809" x2="95.2564" y2="90.1694" gradientTransform="matrix(0.9986 0.0523 -0.0523 0.9986 5.7817 -48.9482)">
			<stop  offset="0" style="stop-color:#FFFFFF"/>
			<stop  offset="1" style="stop-color:#A6CE39"/>
		</linearGradient>
		<path id="XMLID_87_" class="st10" d="M96.368,46.23c-0.016,0.302-0.436,0.526-0.937,0.5c-0.502-0.026-0.896-0.293-0.88-0.595
			c0.016-0.302,0.436-0.526,0.937-0.5C95.99,45.661,96.384,45.928,96.368,46.23z"/>
		
			<linearGradient id="XMLID_110_" gradientUnits="userSpaceOnUse" x1="96.1772" y1="90.1729" x2="97.4885" y2="89.9237" gradientTransform="matrix(0.9986 0.0523 -0.0523 0.9986 5.7817 -48.9482)">
			<stop  offset="0" style="stop-color:#FFFFFF"/>
			<stop  offset="1" style="stop-color:#A6CE39"/>
		</linearGradient>
		<path id="XMLID_86_" class="st11" d="M98.574,46.072c-0.013,0.242-0.348,0.421-0.75,0.4s-0.717-0.234-0.704-0.476
			c0.013-0.242,0.348-0.421,0.75-0.4S98.587,45.83,98.574,46.072z"/>
	</g>
</g>
<g id="XMLID_69_">
	
		<linearGradient id="XMLID_111_" gradientUnits="userSpaceOnUse" x1="-55.3792" y1="85.1543" x2="-60.7209" y2="80.2239" gradientTransform="matrix(-1 0 0 1 117.0545 0)">
		<stop  offset="0" style="stop-color:#A6CE39"/>
		<stop  offset="1" style="stop-color:#78A842"/>
	</linearGradient>
	<path id="XMLID_83_" class="st12" d="M182.622,71.848c0,0-17.346,10.584-16.464,17.64c0.882,7.056,6.174,1.47,6.174,1.47
		s1.657-12.877,12.917-16.464C189.023,73.292,182.622,71.848,182.622,71.848z"/>
	
		<linearGradient id="XMLID_112_" gradientUnits="userSpaceOnUse" x1="-103.4704" y1="43.8086" x2="-121.355" y2="68.1341" gradientTransform="matrix(-1 0 0 1 117.0545 0)">
		<stop  offset="0" style="stop-color:#A6CE39"/>
		<stop  offset="1" style="stop-color:#78A842"/>
	</linearGradient>
	<path id="XMLID_82_" class="st13" d="M278.929,39.508c-24.82-5.292-36.038,46.452-72.265,47.775
		c-5.068,0.185-18.406-3.901-25.554-13.345C223.993,21.638,278.929,39.508,278.929,39.508z"/>
	
		<linearGradient id="XMLID_113_" gradientUnits="userSpaceOnUse" x1="-92.758" y1="19.176" x2="-105.3716" y2="42.8167" gradientTransform="matrix(-1 0 0 1 117.0545 0)">
		<stop  offset="0" style="stop-color:#A6CE39"/>
		<stop  offset="1" style="stop-color:#78A842"/>
	</linearGradient>
	<path id="XMLID_81_" class="st14" d="M176.595,57.295c2.499-21.903,21.315-29.988,51.167-29.988
		c29.852,0,51.167,12.201,51.167,12.201s-54.936-17.871-97.819,34.43C177.806,69.572,175.823,64.061,176.595,57.295z"/>
	
		<radialGradient id="XMLID_114_" cx="-84.0685" cy="39.0674" r="14.4703" gradientTransform="matrix(-1 0 0 1 117.0545 0)" gradientUnits="userSpaceOnUse">
		<stop  offset="0" style="stop-color:#FFFFFF"/>
		<stop  offset="1" style="stop-color:#A6CE39"/>
	</radialGradient>
	<path id="XMLID_80_" class="st15" d="M219.372,29.806c0,0-27.13,0.588-36.497,18.522C182.874,48.328,194.992,32.273,219.372,29.806
		z"/>
	<g id="XMLID_75_">
		
			<linearGradient id="XMLID_115_" gradientUnits="userSpaceOnUse" x1="-127.2555" y1="170.0042" x2="-114.2397" y2="169.9645" gradientTransform="matrix(-0.9563 0.2924 0.2924 0.9563 67.269 -77.1836)">
			<stop  offset="0" style="stop-color:#A6CE39"/>
			<stop  offset="1" style="stop-color:#78A842"/>
		</linearGradient>
		<path id="XMLID_79_" class="st16" d="M223.708,52.741c0.779,2.547,5.503,3.359,10.553,1.816s8.512-4.86,7.734-7.406
			c-0.779-2.547-5.503-3.359-10.553-1.816S222.93,50.194,223.708,52.741z"/>
		
			<linearGradient id="XMLID_116_" gradientUnits="userSpaceOnUse" x1="-111.3152" y1="172.7008" x2="-124.7005" y2="168.9551" gradientTransform="matrix(-0.9563 0.2924 0.2924 0.9563 67.269 -77.1836)">
			<stop  offset="0" style="stop-color:#FFFFFF"/>
			<stop  offset="1" style="stop-color:#A6CE39"/>
		</linearGradient>
		<path id="XMLID_78_" class="st17" d="M226.713,51.391c0.652,2.134,4.437,2.868,8.453,1.641c4.016-1.228,6.743-3.953,6.091-6.087
			c-0.652-2.134-4.437-2.868-8.453-1.641C228.788,46.532,226.061,49.257,226.713,51.391z"/>
		
			<linearGradient id="XMLID_117_" gradientUnits="userSpaceOnUse" x1="-122.0509" y1="102.6182" x2="-119.9856" y2="102.2257" gradientTransform="matrix(-0.9986 0.0523 0.0523 0.9986 111.2729 -48.9482)">
			<stop  offset="0" style="stop-color:#FFFFFF"/>
			<stop  offset="1" style="stop-color:#A6CE39"/>
		</linearGradient>
		<path id="XMLID_77_" class="st18" d="M236.218,47.043c0.02,0.381,0.549,0.663,1.181,0.63s1.129-0.369,1.109-0.75
			c-0.02-0.381-0.549-0.663-1.181-0.63S236.198,46.662,236.218,47.043z"/>
		
			<linearGradient id="XMLID_118_" gradientUnits="userSpaceOnUse" x1="-118.8254" y1="102.2302" x2="-117.1731" y2="101.9161" gradientTransform="matrix(-0.9986 0.0523 0.0523 0.9986 111.2729 -48.9482)">
			<stop  offset="0" style="stop-color:#FFFFFF"/>
			<stop  offset="1" style="stop-color:#A6CE39"/>
		</linearGradient>
		<path id="XMLID_76_" class="st19" d="M233.438,46.844c0.016,0.305,0.439,0.53,0.945,0.504c0.506-0.027,0.903-0.295,0.887-0.6
			s-0.439-0.53-0.945-0.504C233.819,46.271,233.422,46.539,233.438,46.844z"/>
	</g>
	<g id="XMLID_70_">
		
			<linearGradient id="XMLID_119_" gradientUnits="userSpaceOnUse" x1="-106.292" y1="172.8154" x2="-99.7841" y2="172.7956" gradientTransform="matrix(-0.9563 0.2924 0.2924 0.9563 67.269 -77.1836)">
			<stop  offset="0" style="stop-color:#A6CE39"/>
			<stop  offset="1" style="stop-color:#78A842"/>
		</linearGradient>
		<path id="XMLID_74_" class="st20" d="M211.963,59.281c0.389,1.273,2.752,1.68,5.276,0.908c2.525-0.772,4.256-2.43,3.867-3.703
			c-0.389-1.273-2.752-1.68-5.276-0.908C213.305,56.35,211.573,58.008,211.963,59.281z"/>
		
			<linearGradient id="XMLID_120_" gradientUnits="userSpaceOnUse" x1="-98.3218" y1="174.1638" x2="-105.0145" y2="172.2909" gradientTransform="matrix(-0.9563 0.2924 0.2924 0.9563 67.269 -77.1836)">
			<stop  offset="0" style="stop-color:#FFFFFF"/>
			<stop  offset="1" style="stop-color:#A6CE39"/>
		</linearGradient>
		<path id="XMLID_73_" class="st21" d="M213.465,58.606c0.326,1.067,2.219,1.434,4.227,0.82s3.372-1.977,3.045-3.044
			c-0.326-1.067-2.219-1.434-4.227-0.82S213.139,57.539,213.465,58.606z"/>
		
			<linearGradient id="XMLID_121_" gradientUnits="userSpaceOnUse" x1="-102.4335" y1="110.9428" x2="-101.4008" y2="110.7465" gradientTransform="matrix(-0.9986 0.0523 0.0523 0.9986 111.2729 -48.9482)">
			<stop  offset="0" style="stop-color:#FFFFFF"/>
			<stop  offset="1" style="stop-color:#A6CE39"/>
		</linearGradient>
		<path id="XMLID_72_" class="st22" d="M218.218,56.432c0.01,0.19,0.274,0.331,0.591,0.315c0.316-0.017,0.564-0.184,0.554-0.375
			s-0.274-0.331-0.591-0.315C218.456,56.074,218.208,56.242,218.218,56.432z"/>
		
			<linearGradient id="XMLID_122_" gradientUnits="userSpaceOnUse" x1="-100.8207" y1="110.7487" x2="-99.9946" y2="110.5917" gradientTransform="matrix(-0.9986 0.0523 0.0523 0.9986 111.2729 -48.9482)">
			<stop  offset="0" style="stop-color:#FFFFFF"/>
			<stop  offset="1" style="stop-color:#A6CE39"/>
		</linearGradient>
		<path id="XMLID_71_" class="st23" d="M216.828,56.333c0.008,0.152,0.22,0.265,0.472,0.252c0.253-0.013,0.452-0.148,0.444-0.3
			c-0.008-0.152-0.22-0.265-0.472-0.252C217.018,56.046,216.82,56.18,216.828,56.333z"/>
	</g>
</g>
<g id="XMLID_57_">
	
		<radialGradient id="XMLID_123_" cx="188.3827" cy="-105.1541" r="17.3722" gradientTransform="matrix(0.9703 -0.2419 0.2419 0.9703 -25.3932 207.4036)" gradientUnits="userSpaceOnUse">
		<stop  offset="0" style="stop-color:#000000"/>
		<stop  offset="1" style="stop-color:#FFFFFF;stop-opacity:0"/>
	</radialGradient>
	<path id="XMLID_68_" class="st24" d="M139.786,57.845c0.202,0.808,0.274,1.617,0.229,2.405c-0.08,1.465-0.561,2.859-1.361,4.049
		c-1.075,1.604-2.725,2.827-4.747,3.331c-1.051,0.262-2.106,0.305-3.116,0.156c-1.212-0.175-2.361-0.626-3.359-1.305
		c0,0-0.002,0.001-0.001-0.002c-1.592-1.075-2.805-2.715-3.307-4.728c-0.23-0.923-0.292-1.847-0.201-2.743
		c0.001-0.037,0.006-0.073,0.01-0.109c0.158-1.4,0.68-2.721,1.493-3.839c1.075-1.485,2.659-2.613,4.577-3.091
		c0.664-0.166,1.33-0.243,1.984-0.24c1.951,0.004,3.808,0.723,5.245,1.961c0.284,0.246,0.553,0.51,0.803,0.797
		C138.852,55.421,139.464,56.557,139.786,57.845z"/>
	
		<linearGradient id="XMLID_124_" gradientUnits="userSpaceOnUse" x1="189.4155" y1="-97.6368" x2="189.5468" y2="-107.0937" gradientTransform="matrix(0.9703 -0.2419 0.2419 0.9703 -25.3932 207.4036)">
		<stop  offset="0" style="stop-color:#ED1C24"/>
		<stop  offset="1" style="stop-color:#A70E13"/>
	</linearGradient>
	<path id="XMLID_67_" class="st25" d="M139.847,53.129c0.202,0.808,0.274,1.617,0.229,2.405c-0.08,1.465-0.561,2.859-1.361,4.049
		c-1.075,1.604-2.725,2.827-4.747,3.331c-1.051,0.262-2.106,0.305-3.116,0.156c-1.212-0.175-2.361-0.626-3.359-1.305
		c0,0-0.002,0.001-0.001-0.002c-1.592-1.075-2.805-2.715-3.307-4.728c-0.23-0.923-0.292-1.847-0.201-2.743
		c0.001-0.037,0.006-0.073,0.01-0.109c0.158-1.4,0.68-2.721,1.493-3.839c1.075-1.485,2.659-2.613,4.577-3.091
		c0.664-0.166,1.33-0.243,1.984-0.24c1.951,0.004,3.808,0.723,5.245,1.961c0.284,0.246,0.553,0.51,0.803,0.797
		C138.913,50.704,139.526,51.84,139.847,53.129z"/>
	
		<linearGradient id="XMLID_125_" gradientUnits="userSpaceOnUse" x1="187.6719" y1="-120.3507" x2="184.7672" y2="-121.7778" gradientTransform="matrix(0.9703 -0.2419 0.2419 0.9703 -25.3932 207.4036)">
		<stop  offset="0" style="stop-color:#FFFFFF"/>
		<stop  offset="1" style="stop-color:#000000"/>
	</linearGradient>
	<path id="XMLID_66_" class="st26" d="M122.813,44.461c0,0,2.466-0.862,4.551,1.051L122.813,44.461z"/>
	
		<linearGradient id="XMLID_126_" gradientUnits="userSpaceOnUse" x1="585.8471" y1="-120.3762" x2="583.0121" y2="-121.9372" gradientTransform="matrix(-0.9703 0.2419 0.2419 0.9703 728.5581 19.4224)">
		<stop  offset="0" style="stop-color:#FFFFFF"/>
		<stop  offset="1" style="stop-color:#000000"/>
	</linearGradient>
	<path id="XMLID_65_" class="st27" d="M134.539,41.537c0,0-2.582,0.396-3.525,3.065L134.539,41.537z"/>
	
		<linearGradient id="XMLID_127_" gradientUnits="userSpaceOnUse" x1="189.3739" y1="-123.4076" x2="189.3848" y2="-116.5648" gradientTransform="matrix(0.9703 -0.2419 0.2419 0.9703 -25.3932 207.4036)">
		<stop  offset="0" style="stop-color:#FFFFFF"/>
		<stop  offset="1" style="stop-color:#000000"/>
	</linearGradient>
	<circle id="XMLID_64_" class="st28" cx="129.791" cy="46.99" r="3.421"/>
	
		<linearGradient id="XMLID_128_" gradientUnits="userSpaceOnUse" x1="189.3823" y1="-118.5187" x2="189.3948" y2="-110.6493" gradientTransform="matrix(0.9703 -0.2419 0.2419 0.9703 -25.3932 207.4036)">
		<stop  offset="0" style="stop-color:#FFFFFF"/>
		<stop  offset="1" style="stop-color:#ED1C24"/>
	</linearGradient>
	<path id="XMLID_63_" class="st29" d="M138.094,49.77c-0.957,2.426-3.421,4.52-6.65,5.325c-0.161,0.04-0.32,0.077-0.48,0.11
		c-0.697,0.142-1.389,0.215-2.065,0.223c-1.61,0.023-3.123-0.318-4.384-0.958c-0.18-0.089-0.353-0.187-0.522-0.288
		c0.158-1.4,0.68-2.721,1.493-3.839c1.075-1.485,2.659-2.613,4.577-3.091c0.664-0.166,1.33-0.243,1.984-0.24
		c1.951,0.004,3.808,0.723,5.245,1.961C137.575,49.219,137.844,49.483,138.094,49.77z"/>
	<circle id="XMLID_62_" class="st30" cx="130.862" cy="55.074" r="1.249"/>
	<path id="XMLID_61_" class="st31" d="M126.984,51.877c0.283,1.137-0.41,2.287-1.544,2.57c-0.314,0.078-0.628,0.082-0.925,0.023
		c-0.187-0.035-0.366-0.097-0.532-0.179c0.001-0.037,0.006-0.073,0.01-0.109c0.158-1.4,0.68-2.721,1.493-3.839
		C126.2,50.538,126.792,51.105,126.984,51.877z"/>
	<path id="XMLID_60_" class="st31" d="M137.291,48.973c-0.323,0.808-1.016,1.453-1.922,1.679c-1.503,0.375-3.023-0.541-3.397-2.041
		c-0.137-0.55-0.102-1.103,0.074-1.6C133.997,47.015,135.854,47.735,137.291,48.973z"/>
	<path id="XMLID_59_" class="st32" d="M131.014,61.777c0.113,0.454,0.044,0.91-0.163,1.293c-1.212-0.175-2.361-0.626-3.359-1.305
		c0,0-0.002,0.001-0.001-0.002c0.161-0.624,0.651-1.142,1.319-1.309C129.784,60.21,130.771,60.803,131.014,61.777z"/>
	<path id="XMLID_58_" class="st33" d="M140.075,55.534c-0.08,1.465-0.561,2.859-1.361,4.049c-1.055,0.038-2.027-0.665-2.292-1.73
		c-0.304-1.221,0.438-2.46,1.661-2.765C138.808,54.907,139.538,55.096,140.075,55.534z"/>
</g>
</svg>