<!-- Generator: Adobe Illustrator 19.0.0, SVG Export Plug-In  -->
<svg version="1.1"
	 xmlns="http://www.w3.org/2000/svg" xmlns:xlink="http://www.w3.org/1999/xlink" xmlns:a="http://ns.adobe.com/AdobeSVGViewerExtensions/3.0/"
	 x="0px" y="0px" width="179.055px" height="104.364px" viewBox="0 0 179.055 104.364"
	 style="enable-background:new 0 0 179.055 104.364;" xml:space="preserve">
<style type="text/css">
	.st0{fill:url(#XMLID_45_);}
	.st1{fill:url(#XMLID_46_);}
	.st2{fill:url(#XMLID_47_);}
	.st3{fill:url(#XMLID_48_);}
	.st4{fill:url(#XMLID_49_);}
	.st5{fill:url(#XMLID_50_);}
	.st6{fill:url(#XMLID_51_);}
	.st7{fill:url(#XMLID_52_);}
	.st8{fill:url(#XMLID_53_);}
	.st9{fill:url(#XMLID_54_);}
	.st10{fill:url(#XMLID_55_);}
	.st11{fill:url(#XMLID_56_);}
	.st12{fill:url(#XMLID_57_);}
	.st13{fill:url(#XMLID_58_);}
	.st14{fill:url(#XMLID_59_);}
	.st15{fill:url(#XMLID_60_);}
	.st16{fill:url(#XMLID_61_);}
	.st17{fill:url(#XMLID_62_);}
	.st18{fill:url(#XMLID_63_);}
	.st19{fill:url(#XMLID_64_);}
	.st20{fill:url(#XMLID_65_);}
	.st21{fill:url(#XMLID_66_);}
	.st22{fill:url(#XMLID_67_);}
	.st23{fill:url(#XMLID_68_);}
</style>
<defs>
</defs>
<g id="XMLID_30_">
	<linearGradient id="XMLID_45_" gradientUnits="userSpaceOnUse" x1="169.0408" y1="91.8206" x2="160.5619" y2="83.9945">
		<stop  offset="0" style="stop-color:#A6CE39"/>
		<stop  offset="1" style="stop-color:#78A842"/>
	</linearGradient>
	<path id="XMLID_44_" class="st0" d="M152.87,70.7c0,0,27.533,16.8,26.133,28c-1.4,11.2-9.8,2.333-9.8,2.333
		S166.573,80.594,148.7,74.9C142.709,72.991,152.87,70.7,152.87,70.7z"/>
	<linearGradient id="XMLID_46_" gradientUnits="userSpaceOnUse" x1="92.7057" y1="26.1924" x2="64.3174" y2="64.8044">
		<stop  offset="0" style="stop-color:#A6CE39"/>
		<stop  offset="1" style="stop-color:#78A842"/>
	</linearGradient>
	<path id="XMLID_43_" class="st1" d="M0,19.367C39.397,10.967,57.203,93.1,114.707,95.2c8.044,0.294,29.215-6.192,40.561-21.183
		C87.2-8.999,0,19.367,0,19.367z"/>
	<linearGradient id="XMLID_47_" gradientUnits="userSpaceOnUse" x1="109.7094" y1="-12.907" x2="89.6878" y2="24.6181">
		<stop  offset="0" style="stop-color:#A6CE39"/>
		<stop  offset="1" style="stop-color:#78A842"/>
	</linearGradient>
	<path id="XMLID_42_" class="st2" d="M162.436,47.6C158.47,12.833,128.603,0,81.218,0S0,19.367,0,19.367s87.2-28.366,155.268,54.65
		C160.514,67.086,163.661,58.339,162.436,47.6z"/>
	<radialGradient id="XMLID_48_" cx="123.5022" cy="18.6667" r="22.9687" gradientUnits="userSpaceOnUse">
		<stop  offset="0" style="stop-color:#FFFFFF"/>
		<stop  offset="1" style="stop-color:#A6CE39"/>
	</radialGradient>
	<path id="XMLID_41_" class="st3" d="M94.536,3.967c0,0,43.064,0.933,57.932,29.4C152.468,33.367,133.234,7.882,94.536,3.967z"/>
	<g id="XMLID_36_">
		
			<linearGradient id="XMLID_49_" gradientUnits="userSpaceOnUse" x1="45.7597" y1="101.3755" x2="66.4196" y2="101.3126" gradientTransform="matrix(0.9563 0.2924 -0.2924 0.9563 49.7855 -77.1836)">
			<stop  offset="0" style="stop-color:#A6CE39"/>
			<stop  offset="1" style="stop-color:#78A842"/>
		</linearGradient>
		<path id="XMLID_40_" class="st4" d="M87.653,40.37c-1.236,4.042-8.735,5.332-16.751,2.882
			c-8.015-2.451-13.511-7.714-12.275-11.756c1.236-4.042,8.735-5.332,16.751-2.882S88.889,36.328,87.653,40.37z"/>
		
			<linearGradient id="XMLID_50_" gradientUnits="userSpaceOnUse" x1="71.0618" y1="105.656" x2="49.8152" y2="99.7104" gradientTransform="matrix(0.9563 0.2924 -0.2924 0.9563 49.7855 -77.1836)">
			<stop  offset="0" style="stop-color:#FFFFFF"/>
			<stop  offset="1" style="stop-color:#A6CE39"/>
		</linearGradient>
		<path id="XMLID_39_" class="st5" d="M82.883,38.228c-1.036,3.387-7.043,4.553-13.418,2.604s-10.703-6.275-9.668-9.662
			s7.043-4.553,13.418-2.604S83.918,34.841,82.883,38.228z"/>
		
			<linearGradient id="XMLID_51_" gradientUnits="userSpaceOnUse" x1="62.4784" y1="77.2673" x2="65.7568" y2="76.6443" gradientTransform="matrix(0.9986 0.0523 -0.0523 0.9986 5.7817 -48.9482)">
			<stop  offset="0" style="stop-color:#FFFFFF"/>
			<stop  offset="1" style="stop-color:#A6CE39"/>
		</linearGradient>
		<path id="XMLID_38_" class="st6" d="M67.796,31.326c-0.032,0.605-0.871,1.052-1.875,1c-1.004-0.053-1.792-0.585-1.76-1.19
			c0.032-0.605,0.871-1.052,1.875-1C67.04,30.189,67.828,30.722,67.796,31.326z"/>
		
			<linearGradient id="XMLID_52_" gradientUnits="userSpaceOnUse" x1="67.5983" y1="76.6514" x2="70.221" y2="76.1529" gradientTransform="matrix(0.9986 0.0523 -0.0523 0.9986 5.7817 -48.9482)">
			<stop  offset="0" style="stop-color:#FFFFFF"/>
			<stop  offset="1" style="stop-color:#A6CE39"/>
		</linearGradient>
		<path id="XMLID_37_" class="st7" d="M72.208,31.011c-0.025,0.484-0.697,0.842-1.5,0.8c-0.803-0.042-1.433-0.468-1.408-0.952
			s0.697-0.842,1.5-0.8C71.603,30.101,72.234,30.527,72.208,31.011z"/>
	</g>
	<g id="XMLID_31_">
		
			<linearGradient id="XMLID_53_" gradientUnits="userSpaceOnUse" x1="79.035" y1="105.8379" x2="89.365" y2="105.8064" gradientTransform="matrix(0.9563 0.2924 -0.2924 0.9563 49.7855 -77.1836)">
			<stop  offset="0" style="stop-color:#A6CE39"/>
			<stop  offset="1" style="stop-color:#78A842"/>
		</linearGradient>
		<path id="XMLID_35_" class="st8" d="M106.296,50.752c-0.618,2.021-4.368,2.666-8.375,1.441c-4.008-1.225-6.756-3.857-6.138-5.878
			c0.618-2.021,4.368-2.666,8.375-1.441C104.166,46.099,106.914,48.731,106.296,50.752z"/>
		
			<linearGradient id="XMLID_54_" gradientUnits="userSpaceOnUse" x1="91.6861" y1="107.9781" x2="81.0628" y2="105.0053" gradientTransform="matrix(0.9563 0.2924 -0.2924 0.9563 49.7855 -77.1836)">
			<stop  offset="0" style="stop-color:#FFFFFF"/>
			<stop  offset="1" style="stop-color:#A6CE39"/>
		</linearGradient>
		<path id="XMLID_34_" class="st9" d="M103.911,49.681c-0.518,1.694-3.522,2.277-6.709,1.302c-3.187-0.975-5.352-3.137-4.834-4.831
			c0.518-1.694,3.522-2.277,6.709-1.302S104.429,47.987,103.911,49.681z"/>
		
			<linearGradient id="XMLID_55_" gradientUnits="userSpaceOnUse" x1="93.6173" y1="90.4809" x2="95.2564" y2="90.1694" gradientTransform="matrix(0.9986 0.0523 -0.0523 0.9986 5.7817 -48.9482)">
			<stop  offset="0" style="stop-color:#FFFFFF"/>
			<stop  offset="1" style="stop-color:#A6CE39"/>
		</linearGradient>
		<path id="XMLID_33_" class="st10" d="M96.368,46.23c-0.016,0.302-0.436,0.526-0.937,0.5c-0.502-0.026-0.896-0.293-0.88-0.595
			c0.016-0.302,0.436-0.526,0.937-0.5C95.99,45.661,96.384,45.928,96.368,46.23z"/>
		
			<linearGradient id="XMLID_56_" gradientUnits="userSpaceOnUse" x1="96.1772" y1="90.1729" x2="97.4885" y2="89.9237" gradientTransform="matrix(0.9986 0.0523 -0.0523 0.9986 5.7817 -48.9482)">
			<stop  offset="0" style="stop-color:#FFFFFF"/>
			<stop  offset="1" style="stop-color:#A6CE39"/>
		</linearGradient>
		<path id="XMLID_32_" class="st11" d="M98.574,46.072c-0.013,0.242-0.348,0.421-0.75,0.4s-0.717-0.234-0.704-0.476
			c0.013-0.242,0.348-0.421,0.75-0.4S98.587,45.83,98.574,46.072z"/>
	</g>
</g>
</svg>